<svg xmlns="http://www.w3.org/2000/svg" viewBox="0 0 1000 620" role="img"><defs><linearGradient id="bg" x2="1" y2="1"><stop stop-color="#101f3d"/><stop offset="1" stop-color="#156e75"/></linearGradient><linearGradient id="blue"><stop stop-color="#32ced4"/><stop offset="1" stop-color="#8fc9ed"/></linearGradient><pattern id="dots" width="35" height="35" patternUnits="userSpaceOnUse"><circle cx="4" cy="4" r="1" fill="#ffffff" opacity=".12"/></pattern></defs><rect width="1000" height="620" rx="28" fill="url(#bg)"/><rect width="1000" height="620" fill="url(#dots)"/><g fill="none" stroke="#87d7dd" stroke-width="9"><circle cx="500" cy="300" r="185"/><path d="M315 300H115M685 300H885M500 115V30M500 485V590"/></g><g fill="#eaf8f5" stroke="#54bebf" stroke-width="5"><rect x="370" y="215" width="260" height="168" rx="24"/><rect x="42" y="246" width="160" height="110" rx="18"/><rect x="799" y="246" width="160" height="110" rx="18"/><rect x="422" y="25" width="156" height="100" rx="18"/><rect x="422" y="495" width="156" height="100" rx="18"/></g><g fill="#107777"><circle cx="500" cy="296" r="37"/><circle cx="120" cy="299" r="20"/><circle cx="878" cy="299" r="20"/><circle cx="500" cy="76" r="19"/><circle cx="500" cy="547" r="19"/></g><path d="M445 351h110" stroke="#52b4a6" stroke-width="11" stroke-linecap="round"/></svg>